# xmcd
#
# Track frame offsets: 
#        150
#        27030
#        46290
#        58864
#        76177
#        96521
#        112678
#        126915
#        144228
#        158553
#
# Disc length: 2401 seconds
#
# Revision: 0
# Processed by: cddbd v1.5.2PL0 Copyright (c) Steve Scherf et al.
# Submitted via: ExactAudioCopy v1.3
#
DISCID=75095f0a
DTITLE=David Gogo - Bare Bones
DYEAR=2000
DGENRE=Blues
TTITLE0=Halfway To Memphis
TTITLE1=Fine Young Thing
TTITLE2=Aberdeen Mississippi Blues
TTITLE3=Western Coast
TTITLE4=All Over Town
TTITLE5=Shooting Star
TTITLE6=Dallas
TTITLE7=San Diego Serenade
TTITLE8=Crazy Little Thing
TTITLE9=In My Time Of Dying
EXTD=
EXTT0=
EXTT1=
EXTT2=
EXTT3=
EXTT4=
EXTT5=
EXTT6=
EXTT7=
EXTT8=
EXTT9=
PLAYORDER=
